<svg width="22" height="22" viewBox="0 0 22 22" fill="none" xmlns="http://www.w3.org/2000/svg">
<path fill-rule="evenodd" clip-rule="evenodd" d="M5.18129 1.02125C9.04864 0.593056 12.9514 0.593056 16.8188 1.02125C18.96 1.26125 20.6875 2.9475 20.9388 5.09625C21.3971 9.01874 21.3971 12.9813 20.9388 16.9037C20.6875 19.0525 18.96 20.7387 16.8188 20.9787C12.9514 21.4069 9.04864 21.4069 5.18129 20.9787C3.04004 20.7387 1.31254 19.0525 1.06129 16.9037C0.603106 12.9817 0.603106 9.01958 1.06129 5.0975C1.18837 4.05358 1.66426 3.08318 2.41183 2.34355C3.1594 1.60393 4.13483 1.13843 5.18004 1.0225M11 4.75875C11.2487 4.75875 11.4871 4.85752 11.663 5.03333C11.8388 5.20915 11.9375 5.44761 11.9375 5.69625V10.0625H16.3038C16.5524 10.0625 16.7909 10.1613 16.9667 10.3371C17.1425 10.5129 17.2413 10.7514 17.2413 11C17.2413 11.2486 17.1425 11.4871 16.9667 11.6629C16.7909 11.8387 16.5524 11.9375 16.3038 11.9375H11.9375V16.3037C11.9375 16.5524 11.8388 16.7908 11.663 16.9667C11.4871 17.1425 11.2487 17.2412 11 17.2412C10.7514 17.2412 10.5129 17.1425 10.3371 16.9667C10.1613 16.7908 10.0625 16.5524 10.0625 16.3037V11.9375H5.69629C5.44765 11.9375 5.20919 11.8387 5.03338 11.6629C4.85756 11.4871 4.75879 11.2486 4.75879 11C4.75879 10.7514 4.85756 10.5129 5.03338 10.3371C5.20919 10.1613 5.44765 10.0625 5.69629 10.0625H10.0625V5.69625C10.0625 5.44761 10.1613 5.20915 10.3371 5.03333C10.5129 4.85752 10.7514 4.75875 11 4.75875Z" fill="black"/>
</svg>
