<svg width="25" height="25" viewBox="0 0 25 25" fill="none" xmlns="http://www.w3.org/2000/svg">
<circle cx="12.5" cy="12.5" r="12.5" fill="#FFECF4"/>
<path d="M13 14.9275C14.2778 14.9275 15.5033 14.4199 16.4068 13.5164C17.3103 12.6128 17.8179 11.3874 17.8179 10.1096C17.8179 8.83178 17.3103 7.60633 16.4068 6.70279C15.5033 5.79926 14.2778 5.29166 13 5.29166C11.7222 5.29166 10.4968 5.79926 9.59323 6.70279C8.6897 7.60633 8.1821 8.83178 8.1821 10.1096C8.1821 11.3874 8.6897 12.6128 9.59323 13.5164C10.4968 14.4199 11.7222 14.9275 13 14.9275ZM13 14.9275V20.7083M10.1092 17.8175H15.8908" stroke="#EB307E" stroke-width="1.5" stroke-linecap="round" stroke-linejoin="round"/>
</svg>
