<svg width="16" height="16" viewBox="0 0 16 16" fill="none" xmlns="http://www.w3.org/2000/svg">
<path d="M3.89533 3.04533C4.98396 1.95671 6.46045 1.34512 8 1.34512C9.53955 1.34512 11.016 1.95671 12.1047 3.04533C13.1933 4.13396 13.8049 5.61045 13.8049 7.15C13.8049 8.68955 13.1933 10.166 12.1047 11.2547L11.3133 12.0373C10.7302 12.6093 9.97333 13.3453 9.04267 14.2453C8.76295 14.5158 8.38909 14.667 8 14.667C7.61091 14.667 7.23705 14.5158 6.95733 14.2453L4.63 11.9813C4.33711 11.6942 4.09222 11.452 3.89533 11.2547C3.35628 10.7156 2.92867 10.0757 2.63693 9.37144C2.34519 8.66716 2.19504 7.91231 2.19504 7.15C2.19504 6.38768 2.34519 5.63283 2.63693 4.92855C2.92867 4.22427 3.35628 3.58435 3.89533 3.04533ZM11.3973 3.752C10.9511 3.30581 10.4214 2.95188 9.83834 2.71043C9.25533 2.46897 8.63047 2.34471 7.99943 2.34474C7.3684 2.34477 6.74354 2.46909 6.16056 2.71061C5.57757 2.95212 5.04785 3.3061 4.60167 3.75233C4.15548 4.19856 3.80155 4.72831 3.56009 5.31132C3.31863 5.89433 3.19437 6.5192 3.1944 7.15023C3.19444 7.78127 3.31876 8.40612 3.56027 8.98911C3.80179 9.5721 4.15577 10.1018 4.602 10.548L5.594 11.5267C6.13978 12.0604 6.826 12.7271 7.65267 13.5267C7.74588 13.6167 7.87041 13.667 8 13.667C8.12959 13.667 8.25412 13.6167 8.34733 13.5267L10.6107 11.3267C10.924 11.0196 11.1862 10.76 11.3973 10.548C12.2983 9.64695 12.8045 8.4249 12.8045 7.15066C12.8045 5.87643 12.2983 4.65438 11.3973 3.75333M8 5.33266C8.26282 5.33266 8.52307 5.38443 8.76588 5.48501C9.00869 5.58558 9.22932 5.733 9.41516 5.91884C9.601 6.10468 9.74842 6.32531 9.84899 6.56812C9.94957 6.81093 10.0013 7.07118 10.0013 7.334C10.0013 7.59682 9.94957 7.85706 9.84899 8.09988C9.74842 8.34269 9.601 8.56331 9.41516 8.74915C9.22932 8.935 9.00869 9.08241 8.76588 9.18299C8.52307 9.28357 8.26282 9.33533 8 9.33533C7.47563 9.32576 6.97596 9.11073 6.60851 8.73651C6.24106 8.3623 6.03519 7.85879 6.03519 7.33433C6.03519 6.80987 6.24106 6.30637 6.60851 5.93215C6.97596 5.55793 7.47563 5.3429 8 5.33333M8 6.33333C7.73443 6.33333 7.47974 6.43883 7.29195 6.62662C7.10416 6.8144 6.99867 7.06909 6.99867 7.33466C6.99867 7.60023 7.10416 7.85493 7.29195 8.04271C7.47974 8.2305 7.73443 8.336 8 8.336C8.26101 8.32926 8.50907 8.22084 8.69129 8.03385C8.87352 7.84687 8.9755 7.59609 8.9755 7.335C8.9755 7.0739 8.87352 6.82313 8.69129 6.63614C8.50907 6.44915 8.26101 6.34073 8 6.334" fill="#070707"/>
</svg>
