<svg width="25" height="25" viewBox="0 0 25 25" fill="none" xmlns="http://www.w3.org/2000/svg">
<circle cx="12.5" cy="12.5" r="12.5" fill="#ECF5FF"/>
<path d="M15.5417 10.1142L18.4875 7.16667H14.6667V5.5H21.3333V12.1667H19.6667V8.345L16.7192 11.2925C17.6807 12.5529 18.1273 14.1317 17.9686 15.709C17.8099 17.2864 17.0577 18.7445 15.8643 19.7881C14.671 20.8317 13.1256 21.3828 11.5411 21.3298C9.95671 21.2768 8.45161 20.6237 7.33062 19.5027C6.20962 18.3817 5.55651 16.8766 5.50353 15.2922C5.45054 13.7077 6.00165 12.1624 7.04525 10.969C8.08885 9.77562 9.54695 9.02342 11.1243 8.8647C12.7017 8.70599 14.2804 9.15262 15.5408 10.1142M11.75 19.6667C12.9656 19.6667 14.1314 19.1838 14.9909 18.3242C15.8505 17.4647 16.3333 16.2989 16.3333 15.0833C16.3333 13.8678 15.8505 12.702 14.9909 11.8424C14.1314 10.9829 12.9656 10.5 11.75 10.5C10.5344 10.5 9.36864 10.9829 8.5091 11.8424C7.64956 12.702 7.16667 13.8678 7.16667 15.0833C7.16667 16.2989 7.64956 17.4647 8.5091 18.3242C9.36864 19.1838 10.5344 19.6667 11.75 19.6667Z" fill="#4E8ED9"/>
</svg>
